<svg width="20" height="14" viewBox="0 0 20 14" fill="none" xmlns="http://www.w3.org/2000/svg">
<path d="M19.8381 6.5363C16.8173 2.82152 13.5556 0.935547 10.1347 0.935547C8.77943 0.935547 7.40782 1.23763 6.05254 1.82954C4.98709 2.299 3.9298 2.94806 2.91334 3.76042C1.19474 5.13611 0.182357 6.50773 0.141535 6.56488C-0.0544098 6.8343 -0.0462454 7.2017 0.161946 7.46296C3.17868 11.1818 6.44442 13.0637 9.86529 13.0637C11.2206 13.0637 12.5922 12.7616 13.9475 12.1697C15.0129 11.7003 16.0702 11.0512 17.0867 10.2388C18.8053 8.86315 19.8177 7.49153 19.8585 7.43438C20.0544 7.16496 20.0463 6.79756 19.8381 6.5363ZM16.1355 9.11624C14.7149 10.247 12.4779 11.5941 9.86529 11.5941C7.04451 11.5941 4.29311 10.047 1.68052 6.99351C2.09282 6.50773 2.84802 5.69537 3.8604 4.8871C5.281 3.75634 7.51804 2.40921 10.1306 2.40921C12.9514 2.40921 15.7028 3.95636 18.3154 7.00983C17.9031 7.49561 17.1479 8.31205 16.1355 9.11624Z" fill="#333333"/>
<path d="M12.7062 6.26721C12.3021 6.26721 11.9714 6.59787 11.9714 7.002C11.9714 8.09195 11.0856 8.97778 9.99566 8.97778C8.90572 8.97778 8.01988 8.09195 8.01988 7.002C8.01988 5.91206 8.90572 5.02623 9.99566 5.02623C10.3998 5.02623 10.7305 4.69557 10.7305 4.29143C10.7305 3.8873 10.3998 3.55664 9.99566 3.55664C8.09336 3.55664 6.55029 5.10379 6.55029 7.002C6.55029 8.90022 8.09336 10.4474 9.99566 10.4474C11.898 10.4474 13.441 8.90022 13.441 7.002C13.441 6.59787 13.1104 6.26721 12.7062 6.26721Z" fill="#333333"/>
</svg>
